<?xml version="1.0" encoding="UTF-8"?>
<svg id="Layer_2" data-name="Layer 2" xmlns="http://www.w3.org/2000/svg" viewBox="0 0 15.82 15.91">
  <defs>
    <style>
      .cls-1 {
        fill: #fad88f;
      }

      .cls-2 {
        fill: #ffeade;
      }
    </style>
  </defs>
  <g id="Layer_1-2" data-name="Layer 1">
    <g>
      <path class="cls-1" d="M6.37,15.55c-.45,0-.92-.34-.93-.91l-.04-4.1-4.11.08c-.45,0-.81-.28-.91-.7-.1-.42.08-.83.46-1.04l3.34-1.8-2.2-3.07c-.21-.29-.23-.64-.08-.95.16-.31.48-.51.82-.51.15,0,.29.04.42.11l3.65,1.87,1.85-3.67c.16-.32.47-.51.82-.51.45,0,.92.34.93.91l.03,4.11s4.1-.07,4.1-.07c.45,0,.8.28.91.7.1.42-.08.83-.46,1.04l-3.33,1.79,2.2,3.09c.21.29.23.64.07.95-.16.31-.48.51-.82.51h0c-.15,0-.29-.04-.43-.11l-3.65-1.88-1.83,3.67c-.16.32-.47.51-.82.51Z"/>
      <path class="cls-2" d="M9.46.71c.29,0,.57.21.57.56l.04,4.47,4.46-.08s0,0,.01,0c.58,0,.78.78.27,1.06l-3.69,1.98,2.44,3.42c.29.4-.04.9-.46.9-.09,0-.17-.02-.26-.07l-3.97-2.05-2,3.99c-.11.22-.3.31-.5.31-.28,0-.57-.21-.57-.56l-.05-4.46-4.46.09s0,0-.01,0c-.58,0-.78-.78-.27-1.06l3.69-1.99-2.44-3.4c-.29-.4.03-.9.45-.9.08,0,.17.02.26.07l3.97,2.04,2.01-3.99c.11-.21.3-.31.5-.31M9.46,0h0c-.48,0-.92.27-1.13.7l-1.69,3.35-3.33-1.71c-.19-.1-.38-.14-.59-.14-.48,0-.91.27-1.14.7-.22.43-.18.92.1,1.32l1.97,2.74-2.98,1.61c-.52.28-.78.86-.63,1.44.15.58.64.96,1.24.96l3.77-.08.04,3.75c0,.71.57,1.26,1.28,1.26.48,0,.92-.27,1.14-.71l1.67-3.35,3.33,1.72c.19.1.39.15.59.15.48,0,.91-.27,1.13-.7.22-.43.18-.92-.1-1.32l-1.97-2.76,2.97-1.6c.52-.28.78-.86.63-1.44-.15-.58-.64-.97-1.24-.97l-3.77.07-.03-3.75C10.73.56,10.17,0,9.46,0h0Z"/>
    </g>
  </g>
</svg>