<?xml version="1.0" encoding="UTF-8"?>
<svg id="Layer_2" data-name="Layer 2" xmlns="http://www.w3.org/2000/svg" viewBox="0 0 7.43 7.35">
  <defs>
    <style>
      .cls-1 {
        fill: #fad88f;
      }

      .cls-2 {
        fill: #ffeade;
      }
    </style>
  </defs>
  <g id="Layer_1-2" data-name="Layer 1">
    <g>
      <path class="cls-1" d="M3.5,6.99c-.31,0-.58-.19-.68-.48l-.5-1.38-1.42-.37c-.27-.07-.47-.28-.53-.56-.06-.27.04-.55.26-.72l1.16-.9-.09-1.46c-.01-.2.06-.39.19-.54.14-.15.33-.23.53-.23.14,0,.28.04.4.12l1.22.82,1.37-.54c.09-.03.18-.05.27-.05.23,0,.44.11.58.29s.18.41.12.63l-.4,1.41.93,1.13c.18.21.22.5.1.76-.11.25-.36.42-.64.43l-1.47.05-.79,1.24c-.13.21-.36.33-.61.33Z"/>
      <path class="cls-2" d="M2.43.71c.07,0,.14.02.21.06l1.37.93,1.54-.61s.09-.03.14-.03c.23,0,.42.22.35.47l-.46,1.59,1.05,1.28c.19.24.03.59-.27.6l-1.65.06-.89,1.39c-.07.12-.19.17-.31.17-.15,0-.29-.08-.35-.24l-.57-1.56-1.6-.42c-.3-.08-.38-.46-.13-.65l1.3-1.02-.1-1.65c-.01-.23.17-.39.37-.39M2.43,0c-.3,0-.58.12-.79.34-.21.22-.31.5-.29.8l.08,1.28-1.01.79C.09,3.47-.06,3.88.02,4.28c.08.41.39.72.79.83l1.24.32.44,1.2c.16.43.56.71,1.02.71.37,0,.71-.19.91-.5l.69-1.08,1.28-.04c.41-.01.78-.26.95-.64.17-.38.11-.81-.15-1.13l-.81-.99.35-1.23c.09-.33.03-.67-.17-.95-.2-.27-.53-.43-.86-.43-.14,0-.27.03-.4.08l-1.19.47L3.03.19c-.18-.12-.39-.19-.6-.19h0Z"/>
    </g>
  </g>
</svg>