<?xml version="1.0" encoding="UTF-8"?>
<svg xmlns="http://www.w3.org/2000/svg" viewBox="0 0 29.32 43.36">
  <defs>
    <style>
      .cls-1 {
        fill: #ffd7bf;
      }

      .cls-1, .cls-2 {
        mix-blend-mode: overlay;
      }

      .cls-3 {
        isolation: isolate;
      }

      .cls-4 {
        fill: #eb6977;
      }

      .cls-5 {
        fill: #fac091;
      }

      .cls-6 {
        fill: #ff6979;
      }

      .cls-7 {
        fill: #fff;
      }

      .cls-2 {
        opacity: .31;
      }

      .cls-8 {
        fill: #ffe3ab;
      }

      .cls-9 {
        fill: #fff8ed;
      }

      .cls-10 {
        fill: #94718d;
      }

      .cls-11 {
        fill: #db4959;
      }

      .cls-12 {
        fill: #8daccf;
      }

      .cls-13 {
        fill: #dae5f2;
      }

      .cls-14 {
        fill: #fff9ed;
      }
    </style>
  </defs>
  <g class="cls-3">
    <g id="Layer_2" data-name="Layer 2">
      <g id="Layer_1-2" data-name="Layer 1">
        <g>
          <g>
            <g>
              <path class="cls-9" d="M14.67,43c-1.59,0-3.12-.17-4.57-.49h-.15l-.04-.04c-2.39-.55-4.51-1.58-6.13-2.96-2.24-1.93-3.43-4.49-3.43-7.38,0-2.68,1.04-5.42,2.93-7.7,1.62-1.95,3.74-3.45,6.14-4.33,1.68-.64,3.45-.96,5.25-.96,7.62,0,14.3,6.07,14.3,12.99,0,6.4-5.88,10.87-14.3,10.87Z"/>
              <path class="cls-12" d="M14.67,19.5c7.7,0,13.95,6.06,13.95,12.64s-6.25,10.52-13.95,10.52c-1.59,0-3.13-.17-4.55-.5,0,0,0,0-.01,0,0,0-.01,0-.01,0-2.39-.54-4.47-1.54-6.08-2.9-2.06-1.78-3.3-4.18-3.3-7.12,0-2.7,1.07-5.32,2.85-7.47,1.54-1.85,3.6-3.34,5.99-4.23,1.58-.6,3.3-.94,5.12-.94M14.67,18.79c-1.84,0-3.65.33-5.37.98-2.45.9-4.63,2.44-6.28,4.44-1.94,2.34-3.01,5.16-3.01,7.92,0,3.01,1.23,5.65,3.55,7.65,1.65,1.4,3.78,2.44,6.18,3.01l.06.06h.27c1.46.33,3.01.5,4.61.5,8.63,0,14.65-4.62,14.65-11.22,0-7.11-6.85-13.34-14.65-13.34h0Z"/>
            </g>
            <path class="cls-13" d="M28.61,32.13c0,6.59-6.25,10.52-13.95,10.52h-.1c-4.24-.01-8.01-1.22-10.56-3.4.63.28,1.28.56,1.98.8,9.26,3.17,12.72-6.25,11.2-8.68-1.52-2.42-6.52-.46-11.16-3.54-1.96-1.31-2.5-2.38-2.48-3.16,2.55-3.07,6.57-5.17,11.11-5.17,2.75,0,5.32.78,7.49,2.08,3.88,2.32,6.46,6.33,6.46,10.56Z"/>
            <path class="cls-7" d="M10.09,42.15c-2.39-.54-4.47-1.54-6.08-2.9-2.06-1.78-3.3-4.18-3.3-7.12,0-2.7,1.07-5.32,2.85-7.47,1.54-1.85,3.6-3.34,5.99-4.23l.46.1s-5.14,1.24-7.57,8.57c-2.12,6.42,1.81,11.1,7.66,13.05Z"/>
            <path class="cls-7" d="M28.61,32.13c0,6.59-6.25,10.52-13.95,10.52h-.1c7.68-.5,13.28-4.72,13.18-10.13s-3.77-9.01-5.59-10.95c3.88,2.32,6.46,6.33,6.46,10.56Z"/>
            <ellipse class="cls-7" cx="27.64" cy="32.76" rx=".68" ry="1.42"/>
            <ellipse class="cls-7" cx="26.47" cy="34.78" rx=".49" ry=".81"/>
          </g>
          <g>
            <g>
              <path class="cls-9" d="M14.66,25.15c-6.19,0-10.51-3.29-10.51-8,0-5.09,4.91-9.56,10.51-9.56s10.51,4.47,10.51,9.56c0,4.71-4.32,8-10.51,8Z"/>
              <path class="cls-12" d="M14.66,7.94c5.61,0,10.16,4.41,10.16,9.2s-4.55,7.65-10.16,7.65-10.16-2.86-10.16-7.65S9.05,7.94,14.66,7.94M14.66,7.24c-5.89,0-10.87,4.54-10.87,9.91,0,4.92,4.47,8.36,10.87,8.36s10.87-3.44,10.87-8.36c0-5.37-4.98-9.91-10.87-9.91h0Z"/>
            </g>
            <path class="cls-9" d="M24.81,17.15c0,3.96-3.09,7.03-7.31,7.98-.9.2-1.85.31-2.83.31-3.6,0-6.75-1.44-8.54-3.73t-.01-.01c-.54-.67-.94-1.39-1.21-2.19-.26-.74-.4-1.54-.4-2.36,0-2.43,1.18-4.78,3.07-6.49,1.82-1.66,4.31-2.72,7.09-2.72,5.61,0,10.15,4.41,10.15,9.21Z"/>
            <path class="cls-13" d="M24.81,17.15c0,4.8-4.54,8.3-10.15,8.3-4.65,0-8.55-2.39-9.76-5.93,1.21,1.17,3.44,2.34,7.4,2.34,9.48,0,9.22-8.25,4.69-10.66-3.5-1.86-6.71-1.44-9.42-.53,1.82-1.66,4.31-2.72,7.09-2.72,5.61,0,10.15,4.41,10.15,9.21Z"/>
            <path class="cls-7" d="M24.81,17.15c0,3.96-3.09,7.03-7.31,7.98.04-.74.48-1.34,1.55-1.66,4.27-1.31,5.58-4.4,4.88-7.9-.7-3.51-4.4-6.84-7.94-7.19-3.53-.33-8.62,1.12-10.47,5.69-1.49,3.73-.01,6.67.6,7.63-.54-.67-.94-1.39-1.21-2.19-.26-.74-.4-1.54-.4-2.36,0-2.43,1.18-4.78,3.07-6.49,1.82-1.66,4.31-2.72,7.09-2.72,5.61,0,10.15,4.41,10.15,9.21Z"/>
          </g>
          <g>
            <ellipse class="cls-10" cx="10.51" cy="16.8" rx=".91" ry="1.36"/>
            <ellipse class="cls-10" cx="17.96" cy="16.8" rx=".91" ry="1.36"/>
            <path class="cls-5" d="M13.2,17.4c-.76.58-1.68,3.95-1.3,4s2.66-2.01,2.89-2.48c.51-1.06-.9-2.04-1.59-1.51Z"/>
          </g>
          <g>
            <g>
              <g>
                <path class="cls-6" d="M22.66,34.51c-.51,0-1.41-.06-1.63-.46-.01-.02-.04-.09-.05-.12-.12-.43-.25-1.77-.4-4.15-.1-1.77-.19-3.43-.19-3.43,0-.11.06-.22.16-.27l2.92-1.54s.09-.03.14-.03c.04,0,.07,0,.1.02.08.03.14.09.17.17.25.68,2.47,6.72,1.96,8.47-.03.14-.09.26-.18.37-.65.72-1.97.98-2.99.98Z"/>
                <path class="cls-11" d="M23.6,24.8s2.45,6.57,1.95,8.28c-.03.11-.07.2-.13.27-.56.63-1.79.87-2.76.87-.7,0-1.27-.12-1.38-.31-.01-.01-.01-.04-.03-.09-.13-.46-.27-2.31-.38-4.06-.1-1.76-.18-3.43-.18-3.43l.36-.18,2.56-1.35M23.6,24.21c-.09,0-.19.02-.27.07l-2.56,1.35-.35.18c-.2.11-.33.32-.31.55,0,0,.09,1.67.19,3.43.21,3.16.32,3.89.41,4.18.01.06.04.16.11.26.25.38.87.57,1.86.57.53,0,2.32-.08,3.2-1.06.13-.17.21-.33.26-.52.52-1.78-1.55-7.5-1.97-8.63-.06-.16-.18-.28-.34-.34-.07-.03-.14-.04-.21-.04h0Z"/>
              </g>
              <path class="cls-2" d="M25.43,33.35c-.97,1.08-3.88,1.01-4.14.55-.01-.01-.01-.04-.03-.09.91.09,3.03.19,3.39-.78.46-1.24-.11-3.9-2.05-4.48-.75-.23-1.31.37-1.72,1.21-.1-1.76-.18-3.43-.18-3.43l2.92-1.54s2.79,7.47,1.82,8.55Z"/>
              <path class="cls-1" d="M25.55,33.08c-.03.11-.07.2-.13.27-.97,1.08-3.88,1.01-4.14.56-.01-.01-.01-.04-.03-.09-.13-.46-.27-2.31-.38-4.06-.1-1.76-.19-3.43-.19-3.43l.36-.19c.07,1.52.33,7.09.8,7.6.44.47,2.56.3,3.71-.67Z"/>
            </g>
            <g>
              <path class="cls-6" d="M14.27,27.81c-.71,0-1.42-.02-2.12-.07-3.85-.29-6.73-1.52-7.7-3.29-.49-.89-.47-1.86.05-2.82.1-.21.24-.43.43-.67.05-.07.14-.11.22-.11,0,0,0,0,0,0,.09,0,.17.04.22.1h0s.08.08.29.21c.62.39,2.62,1.32,7.84,1.61.48.02.94.04,1.39.04,5.01,0,8.25-1.47,9.12-1.92.27-.14.41-.22.41-.22.05-.03.1-.04.15-.04.07,0,.14.02.19.07.02.01,1.69,1.49.78,3.68-.66,1.55-4.05,2.88-8.44,3.31-.93.09-1.89.13-2.84.13Z"/>
              <path class="cls-11" d="M24.59,20.91s1.54,1.32.7,3.34c-.63,1.47-4,2.72-8.2,3.13-.9.08-1.85.13-2.82.13-.69,0-1.39-.02-2.09-.07-5.75-.43-8.89-2.93-7.41-5.68.1-.21.23-.41.4-.63,0,0,.09.1.36.27.73.46,2.8,1.37,7.98,1.65.48.03.95.04,1.4.04,4.92,0,8.15-1.38,9.26-1.96.28-.14.43-.23.43-.23M24.59,20.33c-.1,0-.21.03-.3.08-.01,0-.14.08-.39.21-.86.45-4.05,1.9-9,1.9-.45,0-.91-.01-1.37-.04-5.16-.28-7.1-1.19-7.7-1.56-.17-.11-.24-.17-.24-.17-.11-.11-.27-.18-.42-.18-.01,0-.02,0-.03,0-.17,0-.33.08-.43.21-.2.25-.35.49-.47.74-.55,1.02-.57,2.09-.03,3.07,1.02,1.86,3.99,3.15,7.93,3.44.7.05,1.42.07,2.14.07.97,0,1.93-.04,2.87-.13,3.47-.34,7.82-1.46,8.68-3.48.79-1.91-.21-3.46-.85-4.02-.11-.09-.24-.14-.38-.14h0Z"/>
            </g>
            <path class="cls-2" d="M25.28,24.25c-.63,1.47-4,2.72-8.2,3.13,4.07-1.1,4.78-3.42,3.84-3.6-1.12-.21-4.86.98-10.01.14-3.26-.54-5.27-1.69-6.15-2.16.1-.21.23-.41.4-.63,0,0,1.31,1.54,8.34,1.92,7.04.37,11.09-2.15,11.09-2.15,0,0,1.54,1.32.7,3.34Z"/>
            <path class="cls-1" d="M25.28,24.26c-.63,1.47-4,2.72-8.2,3.13-1.55.14-3.23.17-4.91.06-5.75-.43-8.89-2.93-7.41-5.68.1-.21.23-.41.4-.63,0,0,.09.1.36.27-.3.61-.5,1.38-.41,2.25.24,2.42,5.89,3.81,10.69,3.4,4.57-.41,11.14-1.39,8.37-5.92.28-.14.43-.23.43-.23,0,0,1.54,1.32.7,3.34Z"/>
          </g>
          <g>
            <g>
              <g>
                <path class="cls-6" d="M22.74,11.8s-.11,0-.23-.04c-.15-.02-.53-.08-1.02-.18-.39-.09-.87-.2-1.37-.35l-.24-.07c-.28-.08-.57-.16-.86-.26-.46-.15-.92-.32-1.37-.52-.35-.14-.67-.3-1-.48l-.18-.08c-1.02-.56-1.78-1.14-2.32-1.78-.05-.06-.08-.14-.07-.22,0-.08.05-.15.11-.2l1.01-.81.6-.47.71-.57.6-.47.71-.58.6-.47.71-.57,1.33-1.04.58-.48.63-.5.12-.09c.05-.04.11-.06.17-.06.04,0,.08,0,.12.03.1.04.16.14.17.24l.57,6.87.23,2.83c0,.08-.02.16-.08.22-.06.06-.13.09-.21.09Z"/>
                <path class="cls-11" d="M21.94,1.8l.24,2.95.16,1.89.17,2.04.11,1.44.11,1.39s-.06,0-.14-.03c-.2-.03-.57-.09-1.05-.18-.38-.09-.85-.2-1.35-.34-.34-.1-.71-.2-1.08-.33-.44-.14-.9-.31-1.35-.51-.34-.14-.65-.3-.98-.47-.06-.03-.13-.06-.18-.09-.85-.47-1.65-1.02-2.23-1.71l1.01-.81.6-.47.71-.57.6-.47.71-.58.6-.47.71-.57.6-.47.73-.57.58-.48.63-.5.11-.09M21.94,1.22c-.12,0-.25.04-.35.12l-.11.09-.64.51-.59.49-.71.56-.6.47-.72.57-.59.47-.72.59-.59.46-.72.57-.59.47-1.02.81c-.12.1-.2.24-.22.4-.01.16.03.31.14.43.57.66,1.35,1.26,2.4,1.84.06.03.1.05.14.06l.07.03c.3.16.64.33,1.02.49.45.2.92.38,1.4.53.29.1.58.18.87.27l.23.07c.44.13.91.24,1.39.35.37.08.72.14,1.05.19.13.04.23.04.27.04.16,0,.32-.07.43-.19.11-.12.17-.28.15-.44l-.11-1.39-.11-1.44-.17-2.04-.16-1.89-.24-2.95c-.02-.21-.15-.4-.34-.49-.08-.03-.16-.05-.24-.05h0Z"/>
              </g>
              <g>
                <path class="cls-8" d="M17.76,10.11c-.4-.17-.78-.36-1.17-.56-.48-.9-.9-1.75-1.22-2.52l.6-.47c.44,1.05,1.02,2.28,1.79,3.54Z"/>
                <path class="cls-8" d="M22.6,11.48c-.2-.03-.57-.09-1.05-.18-1.74-2.28-2.86-4.6-3.56-6.35l.6-.47c.73,1.89,1.99,4.53,4.01,7Z"/>
                <g>
                  <path class="cls-8" d="M22.34,6.64c-.78-1.41-1.34-2.72-1.72-3.77l.58-.48c.24.67.57,1.48.98,2.36l.16,1.89Z"/>
                  <path class="cls-2" d="M22.74,11.51s-.06,0-.14-.03c-.2-.03-.57-.09-1.05-.19-.38-.09-.85-.2-1.35-.34-.34-.1-.71-.2-1.08-.33-.44-.14-.9-.31-1.35-.51-.34-.14-.65-.3-.98-.47,2.39-1.84,4.08-5.29,5.05-7.76l.11-.09.24,2.95.16,1.89.17,2.04.11,1.44.11,1.39Z"/>
                </g>
              </g>
            </g>
            <g>
              <path class="cls-14" d="M22.06,2.88c-.74,0-1.33-.6-1.33-1.33s.6-1.33,1.33-1.33,1.33.6,1.33,1.33-.6,1.33-1.33,1.33Z"/>
              <path class="cls-4" d="M22.06.43c.62,0,1.12.5,1.12,1.12s-.5,1.12-1.12,1.12-1.12-.5-1.12-1.12.5-1.12,1.12-1.12M22.06,0c-.85,0-1.55.69-1.55,1.55s.69,1.55,1.55,1.55,1.55-.69,1.55-1.55-.69-1.55-1.55-1.55h0Z"/>
            </g>
          </g>
        </g>
      </g>
    </g>
  </g>
</svg>