<?xml version="1.0" encoding="UTF-8"?>
<svg xmlns="http://www.w3.org/2000/svg" xmlns:xlink="http://www.w3.org/1999/xlink" viewBox="0 0 23.31 25.19">
  <defs>
    <style>
      .cls-1 {
        fill: #65e6a1;
      }

      .cls-2 {
        isolation: isolate;
      }

      .cls-3 {
        fill: url(#linear-gradient);
      }

      .cls-3, .cls-4, .cls-5, .cls-6, .cls-7, .cls-8, .cls-9, .cls-10, .cls-11, .cls-12, .cls-13 {
        mix-blend-mode: overlay;
      }

      .cls-14 {
        fill: #ff6979;
      }

      .cls-4 {
        fill: url(#linear-gradient-8);
      }

      .cls-5 {
        fill: url(#linear-gradient-2);
      }

      .cls-6 {
        fill: url(#linear-gradient-3);
      }

      .cls-7 {
        fill: url(#linear-gradient-4);
      }

      .cls-8 {
        fill: url(#linear-gradient-6);
      }

      .cls-9 {
        fill: url(#linear-gradient-5);
      }

      .cls-10 {
        fill: url(#linear-gradient-7);
      }

      .cls-15 {
        fill: #51b880;
      }

      .cls-11 {
        opacity: .32;
      }

      .cls-12 {
        opacity: .23;
      }

      .cls-13 {
        opacity: .64;
      }

      .cls-16 {
        fill: #ffeade;
      }

      .cls-17 {
        fill: #db4959;
      }
    </style>
    <linearGradient id="linear-gradient" x1="7.08" y1="3.77" x2="11.86" y2="13.24" gradientUnits="userSpaceOnUse">
      <stop offset=".08" stop-color="#ffd7bf"/>
      <stop offset=".92" stop-color="#ffd7bf" stop-opacity="0"/>
    </linearGradient>
    <linearGradient id="linear-gradient-2" x1="-396.41" y1="-568.64" x2="-392.57" y2="-561.03" gradientTransform="translate(567.39 -380.72) rotate(-90.61)" xlink:href="#linear-gradient"/>
    <linearGradient id="linear-gradient-3" x1="18.81" y1="8.5" x2="23.32" y2="12.74" xlink:href="#linear-gradient"/>
    <linearGradient id="linear-gradient-4" x1="18.62" y1="8.7" x2="23.13" y2="12.94" xlink:href="#linear-gradient"/>
    <linearGradient id="linear-gradient-5" x1="18.05" y1="4.11" x2="17.43" y2="14.43" xlink:href="#linear-gradient"/>
    <linearGradient id="linear-gradient-6" x1="10.47" y1="10.19" x2="9.99" y2="18.19" xlink:href="#linear-gradient"/>
    <linearGradient id="linear-gradient-7" x1="8.31" y1="12.58" x2="10.63" y2="16.27" gradientTransform="translate(8.94 -2.58) rotate(34.59)" xlink:href="#linear-gradient"/>
    <linearGradient id="linear-gradient-8" x1="7.42" y1="13.14" x2="9.73" y2="16.83" gradientTransform="translate(10 -2.21) rotate(34.59)" xlink:href="#linear-gradient"/>
  </defs>
  <g class="cls-2">
    <g id="Layer_2" data-name="Layer 2">
      <g id="Layer_1-2" data-name="Layer 1">
        <g>
          <g>
            <g>
              <path class="cls-1" d="M13.17,14.7c-.05,0-.11-.02-.14-.07-.01-.01-1.03-1.33-1.9-2.31-.54-.61-.92-.94-1.05-.99-.04-.01-.17-.02-.35-.02-.13,0-.28,0-.44,0-.21,0-.44.01-.69.01-1.2,0-2.92-.15-3.92-1.42-.37-.47-.57-.92-.61-1.33-.09-.81.4-1.35.73-1.61-.65-.29-2.07-1.07-1.87-2.06.13-.66.81-1.02,1.91-1.02.09,0,.17,0,.24,0-.24-.66-.79-2.36-.29-3.2.17-.29.44-.45.8-.49.06,0,.12,0,.17,0,1.4,0,2.14,1.83,2.4,2.63.29-.37.85-.93,1.57-.93.11,0,.23.01.34.04l.12.05c.07.03.15.06.22.1.34.18.57.45.68.81.14.47.02.98-.11,1.35.27-.12.63-.24.98-.24.54,0,.95.28,1.18.8.52,1.17.03,2.95-.32,4.25-.1.35-.18.67-.23.92-.03.16-.01.37.07.62.4,1.28,1.93,3.14,1.95,3.16.03.04.05.1.04.15s-.04.1-.09.12l-1.31.68s-.05.02-.08.02Z"/>
              <path class="cls-15" d="M5.77.36c1.63,0,2.34,2.85,2.34,2.85,0,0,.68-1.16,1.64-1.16.1,0,.2.01.3.04.1.04.2.07.3.13,1.27.67.28,2.4.28,2.4,0,0,.69-.47,1.36-.47.4,0,.79.17,1.02.7.63,1.42-.33,3.88-.57,5.07-.04.2-.01.44.07.71h0c.41,1.32,1.98,3.22,1.98,3.22l-1.31.68s-1.02-1.32-1.91-2.32c-.47-.53-.91-.95-1.11-1.04-.09-.03-.23-.04-.42-.04-.29,0-.69.02-1.14.02-1.22,0-2.84-.16-3.78-1.35-.37-.47-.54-.88-.57-1.24-.11-1.08.93-1.64.93-1.64,0,0-2.29-.87-2.06-1.99.15-.76,1.12-.88,1.74-.88.3,0,.51.03.51.03,0,0-1.48-3.53.26-3.71.05,0,.1,0,.15,0M5.77,0c-.06,0-.13,0-.19.01-.41.04-.74.24-.93.58-.48.82-.08,2.31.19,3.11-1.18,0-1.92.42-2.07,1.17-.2,1.01.98,1.77,1.73,2.15-.33.33-.67.86-.59,1.59.04.44.25.92.64,1.42,1.05,1.33,2.82,1.48,4.06,1.48.25,0,.49,0,.7-.01.16,0,.31,0,.44,0,.23,0,.29.01.3.02.04.02.34.25.96.94.86.97,1.88,2.29,1.89,2.3.07.09.17.14.28.14.06,0,.11-.01.16-.04l1.31-.68c.1-.05.16-.14.18-.24.02-.11,0-.21-.07-.3-.02-.02-1.5-1.82-1.9-3.05,0-.02,0-.03-.01-.05-.09-.27-.08-.44-.06-.53.05-.26.14-.57.23-.92.36-1.33.85-3.14.31-4.37-.26-.6-.73-.91-1.35-.91-.25,0-.49.05-.71.12.08-.34.11-.73,0-1.1-.12-.4-.38-.71-.77-.92-.07-.04-.16-.07-.24-.11l-.09-.03s-.03-.01-.05-.02c-.13-.03-.26-.05-.39-.05-.64,0-1.16.4-1.51.77-.34-.92-1.12-2.46-2.47-2.46h0Z"/>
            </g>
            <path class="cls-16" d="M4.27,5.29c1.3-.07,2.62.11,3.89.37,0,0,.05.02.04,0-.11-.08-.34.02-.37.08.12-.18.5-.86.62-1.07.29-.5.62-.99.98-1.46-.11.59-.27,1.15-.48,1.7-.2.46-.31.95-.66,1.35-.13.11-.32.07-.42.04-1.23-.2-2.41-.48-3.6-1.01h0Z"/>
            <path class="cls-16" d="M5.72,8.69c1.39-.09,2.97.09,4.26.11,0,.02-.02,0-.02.02.12-.14.21-.3.32-.47.53-.86,1.08-1.8,1.7-2.62-.31,1.21-.73,2.37-1.4,3.43-.08.11-.18.25-.33.29-1.48.17-3.12-.31-4.52-.76h0Z"/>
            <path class="cls-16" d="M13.13,14c-2.51-3.49-5.04-7.04-6.63-11.05,1.9,3.83,4.7,7.14,7.46,10.37.49.55-.38,1.26-.83.68h0Z"/>
            <path class="cls-13" d="M14.48,13.84l-1.31.68s-2.43-3.14-3.02-3.36c-.58-.2-3.83.54-5.34-1.37-.37-.47-.54-.88-.57-1.24,1.49.14,4.04.14,4.85-1.25.74-1.25.91-3.61.94-5.22.1.04.2.07.3.13,1.27.67.28,2.4.28,2.4,0,0,1.75-1.2,2.38.23s-.33,3.88-.57,5.07c-.24,1.17,2.05,3.93,2.05,3.93Z"/>
            <path class="cls-3" d="M12.51,10.62c-.36-.63-.34-1.01-.1-2.06.24-1.1.61-3.39-.17-3.86-.8-.48-1.95.48-2.03.38-.1-.1.21-.67.38-1.21s-.07-1.57-.91-1.54-1.58,1.34-1.66,1.34S6.91.72,5.7.76c-1.21.06.41,3.71.36,3.76-.07.04-2.01-.37-2.23.6-.23.97,2.35,1.86,2.33,1.91-.01.04-.14.07-.81.38-.67.33-1,1.61.07,2.4,1.08.78,3.73.74,4.11.74s2.02,1.29,2.02,1.29l-.28.36c-.47-.53-.91-.95-1.11-1.04-.58-.2-3.83.54-5.34-1.37-.37-.47-.54-.88-.57-1.24-.11-1.08.93-1.64.93-1.64,0,0-2.29-.87-2.06-1.99.23-1.12,2.25-.85,2.25-.85,0,0-1.48-3.53.26-3.71,1.74-.19,2.49,2.85,2.49,2.85,0,0,.83-1.41,1.94-1.12.1.04.2.07.3.13,1.27.67.28,2.4.28,2.4,0,0,1.75-1.2,2.38.23s-.33,3.88-.57,5.07c-.04.2-.01.44.07.71Z"/>
          </g>
          <g>
            <g>
              <path class="cls-1" d="M4.1,25.05s-.1,0-.15-.01c-.81-.15-.86-1.23-.84-1.72-.38.14-1.18.42-1.85.42-.84,0-1.07-.43-1.11-.79-.14-1.21,1.41-1.86,2.08-2.09-.35-.27-.9-.82-.73-1.53.06-.15.08-.22.11-.28.2-.39.56-.6,1.02-.6.25,0,.5.06.7.13-.14-.29-.27-.71-.17-1.09.08-.29.28-.51.6-.65.28-.13.62-.19,1.04-.19.78,0,1.67.23,2.37.41.28.07.54.14.74.18.04,0,.08.01.12.01.11,0,.24-.02.38-.07,1.02-.33,2.5-1.58,2.52-1.59.03-.02.06-.03.09-.03,0,0,.02,0,.03,0,.04,0,.08.04.1.07l.56,1.04c.03.06.02.14-.04.18-.01,0-1.06.84-1.84,1.54-.48.44-.74.74-.79.85-.03.08-.02.35,0,.63.04,1.03.11,2.75-1.09,3.71-.37.3-.73.47-1.06.5-.05,0-.11,0-.16,0-.56,0-.95-.34-1.14-.58-.22.49-.77,1.53-1.49,1.53Z"/>
              <path class="cls-15" d="M11.03,15.7l.56,1.04s-1.05.83-1.84,1.55c-.42.38-.76.74-.82.9-.15.47.47,3.07-1.05,4.29-.37.3-.7.44-.99.47-.05,0-.1,0-.14,0-.77,0-1.18-.74-1.18-.74,0,0-.62,1.68-1.46,1.68-.04,0-.08,0-.12-.01-.9-.17-.7-1.8-.7-1.8,0,0-1.14.49-2.01.49-.5,0-.91-.16-.97-.67-.16-1.39,2.26-2.02,2.26-2.02,0,0-1.14-.65-.92-1.54.03-.08.06-.16.1-.24.21-.41.56-.53.9-.53.52,0,1.03.28,1.03.28,0,0-.97-1.39.16-1.91.28-.13.62-.18.98-.18,1.08,0,2.38.45,3.09.59.05,0,.1.01.15.01.13,0,.27-.03.42-.08h.01c1.05-.34,2.55-1.61,2.55-1.61M11.03,15.41c-.07,0-.13.02-.18.07-.01.01-1.45,1.22-2.43,1.55-.01,0-.03,0-.04,0-.13.04-.24.06-.33.06-.03,0-.06,0-.09,0-.21-.04-.46-.11-.74-.18-.72-.19-1.61-.42-2.41-.42-.44,0-.79.07-1.1.2-.35.16-.59.42-.68.74-.09.31-.03.64.06.91-.14-.03-.3-.05-.46-.05-.52,0-.92.24-1.15.68-.03.06-.06.13-.08.19l-.03.07c-.17.68.23,1.22.58,1.55-.77.3-2.08.98-1.94,2.16.04.34.26.92,1.25.92.59,0,1.28-.2,1.71-.35,0,.68.22,1.51.96,1.65.06.01.12.02.17.02.73,0,1.26-.86,1.53-1.42.24.23.6.47,1.1.47.06,0,.12,0,.18-.01.36-.03.74-.21,1.13-.53,1.25-1.01,1.18-2.85,1.14-3.83,0-.23-.02-.52,0-.59.02-.03.19-.28.74-.78.77-.7,1.82-1.53,1.83-1.54.11-.09.14-.24.07-.36l-.56-1.04c-.04-.08-.11-.13-.2-.15-.02,0-.04,0-.05,0h0Z"/>
            </g>
            <path class="cls-16" d="M4.26,23.96c-.06-1.04.07-2.1.26-3.12.01-.1-.07.13.02.22.07.08.05.04.04.05-.68-.4-1.41-.77-2.04-1.27.47.08.92.22,1.37.38.39.16.75.23,1.09.52.09.1.06.26.04.34-.15,1-.38,1.96-.78,2.9h0Z"/>
            <path class="cls-16" d="M6.97,22.77c-.08-1.11.05-2.38.05-3.41-.14-.1-.84-.52-1.07-.66-.47-.29-.95-.57-1.41-.91.97.24,1.91.57,2.76,1.09.09.07.2.14.24.26.14,1.24-.22,2.45-.57,3.63h0Z"/>
            <path class="cls-16" d="M11.17,16.78c-2.78,2.04-5.6,4.1-8.81,5.41,3.06-1.56,5.69-3.83,8.26-6.07.43-.39,1.02.3.55.66h0Z"/>
            <path class="cls-13" d="M11.03,15.7l.56,1.04s-2.5,1.98-2.67,2.45c-.15.47.47,3.07-1.05,4.29-.37.3-.7.44-.99.47.1-1.2.08-3.24-1.05-3.88-1.01-.58-2.91-.7-4.2-.71.03-.08.06-.16.1-.24.53-1.02,1.93-.25,1.93-.25,0,0-.97-1.39.16-1.91s3.12.23,4.07.41c.94.18,3.13-1.68,3.13-1.68Z"/>
            <path class="cls-5" d="M8.47,17.31c-.5.29-.81.28-1.65.1-.88-.18-2.72-.46-3.09.17-.38.64.4,1.56.33,1.63-.08.08-.54-.17-.97-.3s-1.26.07-1.23.74,1.09,1.26,1.09,1.32-2.37.9-2.32,1.87c.06.97,2.98-.36,3.01-.32.03.06-.28,1.61.5,1.79.78.17,1.48-1.9,1.51-1.89.03.01.06.11.32.65.27.53,1.3.79,1.93-.08.62-.87.56-3,.56-3.31s1.02-1.63,1.02-1.63l.29.23c-.42.38-.76.74-.82.9-.15.47.47,3.07-1.05,4.29-.37.3-.7.44-.99.47-.87.1-1.32-.73-1.32-.73,0,0-.68,1.85-1.58,1.67-.9-.17-.7-1.8-.7-1.8,0,0-2.82,1.22-2.98-.17-.16-1.39,2.26-2.02,2.26-2.02,0,0-1.14-.65-.92-1.54.03-.08.06-.16.1-.24.53-1.02,1.93-.25,1.93-.25,0,0-.97-1.39.16-1.91s3.12.23,4.07.41c.16.03.35,0,.57-.06Z"/>
          </g>
          <g>
            <g>
              <path class="cls-14" d="M17.7,16.1c-2.93,0-5.32-2.38-5.32-5.32,0-.96.25-1.89.72-2.68.98-1.64,2.69-2.62,4.59-2.62,2.39,0,4.44,1.53,5.1,3.81.14.5.21,1,.21,1.49,0,2.93-2.38,5.32-5.32,5.32Z"/>
              <path class="cls-17" d="M17.7,5.77c2.29,0,4.21,1.51,4.82,3.6.13.46.2.92.2,1.41,0,2.77-2.25,5.02-5.02,5.02s-5.02-2.25-5.02-5.02c0-.92.24-1.79.68-2.53.88-1.48,2.49-2.48,4.34-2.48M17.7,5.19c-2,0-3.81,1.03-4.84,2.76-.5.84-.77,1.82-.77,2.83,0,3.09,2.52,5.61,5.61,5.61s5.61-2.52,5.61-5.61c0-.52-.07-1.05-.22-1.57-.71-2.41-2.87-4.03-5.39-4.03h0Z"/>
            </g>
            <path class="cls-12" d="M22.72,10.78c0,2.77-2.25,5.02-5.02,5.02s-5.02-2.25-5.02-5.02c0-.93.24-1.79.68-2.53.5,2.01,1.65,4.16,4.38,4.21,2.29.04,3.8-1.44,4.78-3.09.13.46.2.92.2,1.41Z"/>
            <ellipse class="cls-6" cx="17.8" cy="7.54" rx="1.92" ry="1.32"/>
            <ellipse class="cls-7" cx="19.57" cy="9.59" rx=".8" ry=".58"/>
            <path class="cls-14" d="M17.7,6.13c2.1,0,3.9,1.34,4.48,3.34.12.44.19.88.19,1.31,0,2.57-2.09,4.67-4.67,4.67s-4.67-2.09-4.67-4.67c0-.84.22-1.66.63-2.35.86-1.44,2.37-2.3,4.03-2.3M17.7,5.77c-1.85,0-3.46,1-4.34,2.48-.44.74-.68,1.61-.68,2.53,0,2.77,2.25,5.02,5.02,5.02s5.02-2.25,5.02-5.02c0-.48-.07-.95-.2-1.41-.61-2.09-2.53-3.6-4.82-3.6h0Z"/>
            <circle class="cls-9" cx="17.67" cy="10.56" r="4.59"/>
            <g>
              <path class="cls-14" d="M10.14,19.24c-1.93,0-3.59-1.39-3.93-3.3-.04-.21-.06-.43-.06-.69,0-2.2,1.79-3.99,3.99-3.99.65,0,1.28.16,1.86.46,1.32.69,2.15,2.04,2.15,3.53,0,2.2-1.8,3.99-4.01,3.99Z"/>
              <path class="cls-17" d="M10.14,11.55c.63,0,1.21.16,1.72.43,1.18.61,1.99,1.85,1.99,3.27,0,2.03-1.66,3.7-3.71,3.7-1.82,0-3.33-1.32-3.64-3.06-.04-.21-.06-.43-.06-.64,0-2.05,1.67-3.7,3.7-3.7M10.14,10.96c-2.36,0-4.28,1.92-4.28,4.29,0,.28.02.53.07.76.37,2.04,2.14,3.53,4.22,3.53,2.37,0,4.3-1.92,4.3-4.28,0-1.6-.88-3.05-2.31-3.79-.62-.33-1.29-.49-1.99-.49h0Z"/>
            </g>
            <path class="cls-11" d="M13.86,15.25c0,2.03-1.66,3.7-3.71,3.7-1.82,0-3.33-1.32-3.64-3.06,1.08.37,2.26.44,3.43-.1,1.71-.8,2.06-2.36,1.94-3.81,1.18.61,1.99,1.85,1.99,3.27Z"/>
            <path class="cls-14" d="M10.14,11.9c.55,0,1.07.13,1.56.39,1.11.58,1.8,1.71,1.8,2.96,0,1.84-1.51,3.34-3.36,3.34-1.62,0-3-1.16-3.29-2.77-.03-.17-.05-.35-.05-.57,0-1.84,1.5-3.34,3.34-3.34M10.14,11.55c-2.03,0-3.7,1.65-3.7,3.7,0,.21.01.43.06.64.31,1.74,1.82,3.06,3.64,3.06,2.05,0,3.71-1.66,3.71-3.7,0-1.42-.81-2.66-1.99-3.27-.51-.27-1.1-.43-1.72-.43h0Z"/>
            <circle class="cls-8" cx="10.17" cy="15.2" r="3.56"/>
            <ellipse class="cls-10" cx="8.62" cy="13.06" rx="1.31" ry=".85" transform="translate(-5.89 7.2) rotate(-34.59)"/>
            <ellipse class="cls-4" cx="8.55" cy="14.94" rx=".73" ry=".5" transform="translate(-6.97 7.5) rotate(-34.59)"/>
          </g>
        </g>
      </g>
    </g>
  </g>
</svg>