<?xml version="1.0" encoding="UTF-8"?>
<svg id="Layer_2" data-name="Layer 2" xmlns="http://www.w3.org/2000/svg" viewBox="0 0 14.11 10.18">
  <defs>
    <style>
      .cls-1 {
        fill: #fcfcfd;
      }
    </style>
  </defs>
  <g id="Layer_1-2" data-name="Layer 1">
    <path class="cls-1" d="M14.11,8.98c-.23.24-3.83-1.93-3.99-1.75.06,1.17.11,2.43-1.22,2.84-.55-.04-5.45.24-7.22.05-.04,0-.09,0-.13-.01-.74-.1-1.34-.7-1.43-1.44C-.05,7.17-.03,3.19.12,1.67.2.96.69.24,1.45.13c1.03-.16,6.35-.18,7.35,0,1.46.26,1.31,1.73,1.38,2.86,1.35-.45,2.55-1.44,3.93-1.75v7.74Z"/>
  </g>
</svg>