<?xml version="1.0" encoding="UTF-8"?>
<svg id="Layer_2" data-name="Layer 2" xmlns="http://www.w3.org/2000/svg" viewBox="0 0 12.11 11.74">
  <defs>
    <style>
      .cls-1 {
        fill: #fcfcfd;
      }
    </style>
  </defs>
  <g id="Layer_1-2" data-name="Layer 1">
    <path class="cls-1" d="M12.11,3.72c-.02.7-.13.82-1.77,1.79-1.32.74-2.93,2.1-4.22,2.9-.57.35-.77.67-.41,1.31.22.39.75.93.32,1.32-.51.46-.97-.22-1.32-.5-.68-.56-1.21-.6-1.82.05-.27.29-.63.5-.95.74-.83.63-1.2.55-1.81-.34-.17-.25-.18-.44,0-.66.12-.14.22-.3.35-.44,1.05-1.07,1.75-2.16.32-3.47-.19-.17-.27-.43-.05-.66.19-.21.39-.07.6-.01.55.15,1.07.8,1.6.49.46-.27.69-.92,1.02-1.41.95-1.42,1.9-2.83,2.82-4.26C7.05.15,7.35-.02,7.85,0c1.12.04,2.23.03,3.35,0,.49-.01.66.16.64.64-.03.59.28,2.49.28,3.08Z"/>
  </g>
</svg>