<?xml version="1.0" encoding="UTF-8"?>
<svg id="Layer_2" data-name="Layer 2" xmlns="http://www.w3.org/2000/svg" viewBox="0 0 27.29 26.17">
  <defs>
    <style>
      .cls-1 {
        fill: #92d9f8;
      }

      .cls-2 {
        fill: #a1def8;
      }

      .cls-3 {
        fill: #ffeade;
      }
    </style>
  </defs>
  <g id="Layer_1-2" data-name="Layer 1">
    <g>
      <g>
        <path class="cls-1" d="M15.69,25.75c-.17,0-.33-.03-.5-.09-.36-.13-.62-.37-.77-.69-.17-.36-.16-.8.01-1.27,0,0,.41-1.08.44-1.16-.18.09-.38.13-.59.13-.39,0-.76-.17-1.03-.47-.37-.41-.46-.94-.25-1.5.09-.24.18-.48.26-.72.2-.56.41-1.13.67-1.69.22-.48.21-.84-.04-1.31-.18-.35-.23-.35-.31-.35-.02,0-.2.02-.22.02-.13,0-.25-.03-.36-.05-.05,0-.09-.02-.14-.03l-.13-.44-.02.42.11-.03c-.18.13-.58.87-.6,1.09l.2,1.19c.1.59.2,1.18.29,1.76.08.49,0,.92-.24,1.24-.21.28-.52.46-.9.52-.08.01-.15.02-.23.02-.3,0-.58-.1-.8-.27.02.11.22,1.34.22,1.34.1.62-.13,1.13-.65,1.44-.24.14-.49.21-.73.21-.31,0-.6-.12-.83-.34-.24-.23-.44-.58-.53-.97-.04-.17-.07-.33-.09-.5l-.05.07c-.33.45-.76.69-1.22.69-.27,0-.55-.09-.79-.26-.67-.48-.77-1.3-.25-2.04l.05-.07c-.19.03-.36.05-.54.08-.07,0-.15.01-.22.01-.81,0-1.42-.56-1.45-1.33-.03-.75.48-1.31,1.28-1.44.38-.06,1.23-.19,1.27-.19-.3-.2-.5-.52-.57-.92-.12-.82.42-1.46,1.35-1.61.61-.1,2.86-.43,2.86-.43.23-.05.86-.63.92-.84,0,0-.06-.12-.11-.19-.08-.14-.16-.29-.2-.49-.03-.16-.03-.17-.42-.25-.13-.03-.25-.04-.36-.04-.34,0-.63.13-.94.42-.48.45-1.01.86-1.51,1.25l-.45.35c-.3.24-.64.36-.98.36-.43,0-.81-.19-1.09-.55-.23-.3-.32-.66-.26-1.01-.06.05-.99.79-.99.79-.33.26-.68.4-1.03.4-.39,0-.75-.18-1.02-.5-.24-.29-.35-.63-.32-.98.04-.4.26-.78.64-1.09l.32-.26c-.06,0-.12-.02-.18-.02-.82-.12-1.35-.76-1.28-1.52.07-.73.66-1.24,1.43-1.24,0,0,.12,0,.13,0,.06,0,.11,0,.17.01l-.27-.34c-.31-.39-.44-.8-.39-1.2.04-.35.22-.66.53-.89.24-.19.52-.29.81-.29.44,0,.88.23,1.22.65,0,0,.74.91.78.96.03-.35.21-.69.51-.94.25-.2.54-.31.85-.31.4,0,.79.18,1.09.5.08.09.16.18.23.27l1.76,2.17c.11.11.75.36,1.15.36.09-.03.18-.17.25-.29l.09-.16s.19-.28.22-.33c-.05-.11-.09-.23-.13-.35-.13-.39-.21-.59-.49-.69-.86-.3-1.71-.64-2.55-.98l-.28-.11c-.82-.33-1.2-1.05-.93-1.79.14-.38.4-.67.74-.81-.38-.15-.76-.3-1.15-.45-.84-.33-1.25-1.09-.98-1.82.22-.57.68-.9,1.28-.9.21,0,.44.04.67.13.14.05.27.1.41.15-.02-.05-.04-.1-.06-.14-.31-.77-.04-1.54.67-1.87.18-.08.37-.13.57-.13.53,0,1.02.32,1.29.84.03.06.06.11.09.17.06-.14.11-.28.17-.42.25-.63.75-1.01,1.32-1.01.18,0,.35.04.53.1.76.3,1.06,1.07.74,1.92,0,0-.42,1.11-.45,1.18.18-.09.37-.14.58-.14.15,0,.31.03.46.08.37.13.64.37.79.7.17.37.17.82,0,1.29l-.25.67c-.2.56-.41,1.13-.66,1.69-.21.46-.21.79.02,1.14.06.09.1.2.15.3.02.04.04.09.06.12.25.07.54.1.87.1h.08c.19-.19.53-.85.53-1.05l-.18-1.07c-.11-.68-.23-1.36-.33-2.04-.12-.79.35-1.45,1.12-1.59.08-.01.17-.02.25-.02.31,0,.59.1.82.28-.01-.09-.22-1.36-.22-1.36-.1-.64.16-1.18.72-1.47.22-.11.44-.17.66-.17.34,0,.64.13.88.38.22.23.4.57.48.95.03.16.06.32.08.48.03-.04.06-.08.09-.12.31-.42.73-.65,1.18-.65.28,0,.56.09.81.27.65.47.76,1.3.26,2-.02.03-.05.07-.07.1.17-.03.34-.05.5-.07.1-.01.19-.02.28-.02.6,0,1.06.29,1.3.8.18.39.18.83-.02,1.2-.21.4-.61.67-1.1.75-.44.07-.87.14-1.31.21.31.2.51.52.57.94.12.84-.42,1.45-1.41,1.6l-2.85.44c-.21.06-.81.64-.88.85,0,0,0,0,0,0,.01,0,.07.09.11.17.08.14.17.3.21.5.03.15.03.16.38.24.17.04.29.05.39.05.33,0,.62-.13.94-.43.48-.44,1-.84,1.5-1.23l.47-.37c.3-.24.64-.37.97-.37.4,0,.77.18,1.04.5.24.27.35.61.32.96,0,.03,0,.07-.01.1.05-.04.98-.79.98-.79.33-.26.69-.4,1.04-.4.41,0,.78.19,1.05.54.5.65.37,1.44-.34,2.03l-.33.27s.08.01.12.02c.86.12,1.4.75,1.33,1.53-.07.74-.66,1.24-1.47,1.24-.06,0-.12,0-.18,0h-.07s.27.33.27.33c.31.39.44.81.4,1.2-.04.35-.22.65-.52.89-.24.19-.52.29-.81.29-.44,0-.88-.23-1.22-.64,0,0-.75-.92-.8-.98-.01.18-.06.36-.15.53-.22.43-.65.69-1.15.7-.41,0-.89-.22-1.17-.53-.5-.55-.96-1.13-1.43-1.72l-.54-.67c-.11-.11-.76-.36-1.15-.36h0s-.08.06-.11.11c-.06.1-.13.23-.25.33-.26.24-.28.37-.11.65.05.09.1.17.15.26.16.29.24.44.49.52.72.22,1.42.51,2.1.79l.63.25c.82.33,1.2,1.05.93,1.79-.14.39-.4.67-.75.81.06.02.85.32,1.18.46.44.17.77.47.93.85.14.32.14.68,0,1-.22.55-.68.86-1.25.86-.21,0-.43-.04-.66-.12-.14-.05-.28-.1-.43-.16.03.06.05.12.08.18.29.73,0,1.51-.67,1.83-.18.08-.37.12-.56.12-.53,0-1.01-.3-1.27-.78-.04-.08-.08-.16-.11-.24l-.14.36c-.27.68-.76,1.08-1.34,1.08Z"/>
        <path class="cls-3" d="M11.6.85c.12,0,.25.02.37.07.54.21.74.75.5,1.38-.35.94-.73,1.88-1.06,2.83-.08.23-.02.51-.03.76.06,0,.13.02.19.03.15-.4.31-.81.46-1.21.2-.51.56-.8.96-.8.1,0,.21.02.32.06.58.21.79.76.53,1.44-.29.78-.55,1.58-.9,2.34-.25.55-.28,1.04.05,1.55.13.19.19.53.35.58.34.1.71.14,1.07.14.06,0,.12,0,.18,0,.28,0,.91-1.19.85-1.52-.17-1.04-.35-2.08-.51-3.13-.09-.57.25-1.02.78-1.11.06-.01.12-.02.17-.02.45,0,.83.31.95.79.03.12.05.25.06.37.03.38.06.75.09,1.13.09,0,.17.01.26.02.06-.24.19-.48.16-.71-.14-1.06-.33-2.12-.5-3.18-.07-.45.09-.81.5-1.03.16-.08.32-.12.47-.12.21,0,.42.08.58.25.18.19.31.48.37.74.09.43.11.87.15,1.31.06.01.12.02.17.03.2-.27.39-.54.59-.81.23-.31.54-.48.84-.48.19,0,.38.06.56.19.46.33.53.9.16,1.42-.19.27-.38.53-.67.92.59-.09,1.05-.17,1.5-.23.08-.01.15-.02.23-.02.44,0,.75.19.92.56.28.6-.08,1.23-.8,1.35-1.03.17-2.06.3-3.08.49-.24.04-.46.22-.68.34.02.06.05.12.07.18.41-.06.82-.12,1.23-.18.11-.02.22-.03.32-.03.6,0,.97.29,1.04.81.08.6-.3,1.01-1.05,1.12-.95.15-1.9.29-2.85.44-.34.05-1.26.92-1.23,1.24.03.27.27.5.32.77.08.46.37.5.75.59.15.03.29.05.43.05.46,0,.85-.19,1.23-.54.62-.56,1.29-1.06,1.94-1.58.23-.18.48-.27.71-.27.27,0,.52.12.72.35.36.42.28,1.01-.2,1.42-.36.3-.72.59-1.08.88.02.05.05.11.07.16.24-.08.53-.11.72-.25.8-.61,1.58-1.26,2.37-1.89.26-.21.53-.31.78-.31.27,0,.52.13.72.38.36.46.25,1.01-.28,1.44-.33.27-.66.54-.98.81,0,0,0,.03-.01.1.33.04.67.07,1,.12.63.09,1.02.52.97,1.07-.05.53-.46.86-1.05.86-.05,0-.1,0-.15,0-.31-.03-.62-.06-1.06-.1.34.43.62.77.89,1.12.44.56.42,1.13-.05,1.5-.17.13-.36.2-.55.2-.31,0-.63-.17-.89-.49-.64-.78-1.26-1.57-1.92-2.34-.16-.19-.43-.29-.65-.43-.04.05-.08.1-.12.15.32.39.65.77.94,1.18.47.66.1,1.52-.67,1.53,0,0,0,0,0,0-.28,0-.65-.18-.84-.39-.68-.76-1.31-1.57-1.96-2.37-.19-.23-1.01-.52-1.48-.52-.1,0-.19.01-.25.05-.17.1-.24.36-.39.51-.38.35-.48.7-.19,1.18.23.38.34.8.87.96.92.28,1.8.67,2.69,1.03.61.24.87.74.69,1.26-.15.41-.47.63-.88.63-.15,0-.31-.03-.48-.09-.44-.16-.87-.33-1.31-.5-.04.05-.07.1-.11.15.21.17.39.41.63.51.93.39,1.88.73,2.82,1.1.62.24.9.78.69,1.3-.16.39-.47.6-.86.6-.16,0-.33-.03-.51-.1-.42-.15-.84-.32-1.36-.51.19.43.34.76.47,1.09.21.53.01,1.07-.46,1.29-.12.06-.25.09-.39.09-.36,0-.71-.2-.9-.56-.09-.17-.15-.35-.23-.52-.08-.17-.16-.34-.29-.6-.19.49-.35.89-.5,1.29-.21.53-.55.81-.95.81-.11,0-.23-.02-.36-.07-.56-.21-.76-.74-.51-1.41.35-.93.72-1.85,1.05-2.79.08-.23.04-.51.05-.77-.06-.01-.13-.02-.19-.03-.19.47-.35.94-.56,1.4-.18.39-.52.59-.88.59-.26,0-.52-.11-.72-.33-.28-.31-.31-.67-.16-1.06.3-.8.57-1.61.92-2.38.28-.6.26-1.11-.05-1.69-.18-.33-.32-.57-.68-.57-.05,0-.09,0-.15.01-.02,0-.05,0-.07,0-.14,0-.29-.05-.44-.07-.06,0-.13-.03-.2-.03-.03,0-.05,0-.08.01-.28.1-.88,1.2-.83,1.5.16,1,.33,1.99.49,2.99.11.7-.19,1.18-.79,1.27-.06,0-.11.01-.16.01-.49,0-.86-.35-.95-.96-.07-.44-.07-.9-.11-1.35-.1,0-.2,0-.31,0-.05.25-.16.5-.13.74.14,1.05.33,2.09.5,3.13.07.43-.07.78-.45,1.01-.17.1-.35.15-.52.15-.19,0-.38-.07-.54-.22-.2-.19-.34-.49-.41-.76-.1-.42-.12-.87-.17-1.31-.06-.01-.11-.03-.17-.04-.18.25-.37.51-.56.76-.25.34-.57.52-.88.52-.18,0-.37-.06-.55-.19-.48-.34-.54-.9-.15-1.45.18-.25.37-.5.64-.88-.6.09-1.07.17-1.53.23-.06,0-.11.01-.17.01-.58,0-1.01-.38-1.03-.92-.02-.53.32-.91.92-1.01,1-.16,2-.29,2.99-.47.26-.05.49-.22.74-.34-.02-.06-.04-.13-.06-.19-.44.06-.88.13-1.32.19-.09.01-.17.02-.25.02-.57,0-.95-.3-1.03-.81-.09-.58.29-1.02,1-1.13.95-.15,1.9-.29,2.85-.43.39-.06,1.29-.88,1.27-1.25-.01-.26-.26-.5-.31-.77-.09-.45-.37-.51-.76-.59-.15-.03-.3-.05-.43-.05-.46,0-.85.18-1.23.53-.61.57-1.29,1.06-1.94,1.58-.23.18-.48.27-.71.27-.29,0-.56-.13-.75-.39-.32-.41-.23-.98.23-1.38.18-.15.37-.3.55-.45.17-.14.34-.28.51-.42-.01-.05-.03-.1-.04-.15-.23.06-.51.06-.69.2-.82.62-1.6,1.27-2.41,1.91-.26.2-.52.31-.77.31-.26,0-.51-.12-.7-.35-.38-.46-.28-1.03.26-1.48.34-.28.67-.55,1.1-.9-.46-.05-.81-.08-1.16-.13-.59-.08-.97-.53-.91-1.06.05-.51.47-.85,1.01-.85.03,0,.06,0,.1,0,.34.02.69.07,1.15.11-.34-.43-.62-.78-.89-1.12-.44-.56-.41-1.13.06-1.5.17-.13.36-.2.55-.2.31,0,.63.17.9.5.64.78,1.26,1.57,1.92,2.34.16.19.43.28.65.42.04-.05.08-.09.11-.14-.32-.39-.65-.78-.94-1.19-.34-.47-.27-1.01.15-1.35.17-.14.37-.21.58-.21.27,0,.55.12.77.37.07.08.15.17.21.25.59.72,1.17,1.44,1.76,2.17.19.23,1.01.52,1.47.52.11,0,.2-.02.26-.05.19-.12.31-.38.44-.59.12-.2.37-.48.31-.6-.25-.49-.24-1.16-.92-1.4-.95-.34-1.89-.71-2.82-1.09-.62-.25-.88-.74-.69-1.26.15-.41.47-.63.88-.63.15,0,.31.03.48.09.43.15.85.33,1.32.5-.01-.39-.21-.55-.51-.66-.94-.36-1.88-.72-2.82-1.09-.63-.25-.93-.77-.73-1.28.15-.41.47-.62.88-.62.16,0,.34.03.53.1.38.14.77.29,1.15.43.01,0,.02,0,.04,0,.02,0,.05,0,.09,0,.01,0,.02,0,.03,0-.15-.34-.29-.66-.42-.98-.23-.56-.04-1.09.45-1.32.13-.06.26-.09.39-.09.36,0,.71.22.91.61.16.32.3.65.49,1.08.2-.52.36-.94.53-1.36.19-.48.53-.75.93-.75M11.6,0c-.65,0-1.22.36-1.57.98-.35-.35-.81-.56-1.29-.56-.26,0-.51.06-.75.17-.7.32-1.08,1-1.04,1.74-.16-.04-.32-.05-.48-.05-.77,0-1.39.44-1.67,1.17-.36.95.15,1.95,1.22,2.36.15.06.31.12.46.18-.12.16-.23.34-.3.54-.14.39-.14.78-.03,1.13-.4,0-.77.14-1.09.4-.16.13-.28.27-.39.42-.11-.13-.21-.26-.32-.39-.43-.52-.98-.8-1.55-.8-.38,0-.75.13-1.07.37-.39.31-.63.71-.69,1.17-.05.41.05.83.28,1.22-.73.19-1.26.78-1.34,1.55-.08.77.33,1.45,1.01,1.79-.3.33-.48.71-.52,1.12-.04.46.1.92.42,1.29.35.42.83.65,1.35.65.44,0,.89-.17,1.29-.49.13-.1.26-.21.39-.31.06.16.15.31.26.46.27.35.64.58,1.05.67-.19.33-.27.72-.21,1.15.03.2.09.39.17.55-.18.03-.35.05-.52.08-1.01.16-1.67.92-1.63,1.88.04.99.84,1.73,1.87,1.73.01,0,.02,0,.03,0-.21.74.03,1.47.68,1.94.32.22.67.34,1.04.34s.71-.11,1.02-.33c.13.36.33.69.58.92.31.3.7.45,1.12.45.32,0,.65-.09.95-.27.67-.4.98-1.08.85-1.87-.03-.2-.06-.4-.1-.6.08.01.17.02.26.02.09,0,.19,0,.29-.02.43-.07.8-.25,1.07-.55.06.1.13.2.22.29.34.37.79.58,1.27.6-.06.15-.12.3-.17.45-.22.57-.22,1.12,0,1.59.19.42.54.74,1.01.91.22.08.44.12.65.12.64,0,1.2-.36,1.56-.97.35.35.82.56,1.32.56.26,0,.51-.06.74-.16.69-.32,1.07-1.01,1.03-1.74.16.04.32.05.48.05.74,0,1.36-.42,1.65-1.13.18-.43.17-.91,0-1.33-.2-.48-.62-.86-1.16-1.07-.16-.06-.33-.13-.49-.19.13-.16.23-.34.3-.54.14-.4.14-.79.02-1.15.01,0,.02,0,.03,0,.62,0,1.15-.3,1.46-.79.1.13.21.26.32.39.42.51.97.8,1.54.8.39,0,.76-.13,1.07-.38.43-.34.67-.8.69-1.31.01-.36-.09-.73-.3-1.08.74-.19,1.27-.78,1.34-1.56.07-.77-.33-1.44-1.01-1.77.65-.71.71-1.62.14-2.36-.35-.45-.84-.7-1.39-.7-.45,0-.9.17-1.3.5-.13.1-.26.21-.39.31-.07-.19-.18-.37-.32-.53-.27-.31-.61-.52-.98-.6.18-.32.26-.71.2-1.13-.03-.21-.09-.4-.17-.57.19-.03.38-.06.57-.09.62-.1,1.13-.46,1.4-.97.25-.49.26-1.06.02-1.57-.31-.67-.93-1.05-1.69-1.05-.02,0-.03,0-.05,0,.2-.72-.03-1.47-.67-1.93-.32-.23-.68-.35-1.06-.35s-.71.11-1.01.32c-.09-.26-.24-.59-.51-.86-.32-.33-.74-.51-1.19-.51-.29,0-.58.07-.86.22-.72.37-1.07,1.09-.95,1.91.03.21.07.41.1.62-.09-.01-.19-.02-.28-.02-.11,0-.21,0-.32.03-.41.07-.75.27-1.01.54-.21-.36-.55-.64-.97-.79-.17-.06-.34-.09-.51-.1.06-.16.12-.32.18-.48.4-1.07,0-2.08-.98-2.46-.23-.09-.45-.13-.68-.13h0ZM13.86,9.13c-.04-.09-.09-.19-.15-.29-.11-.17-.18-.33,0-.74.22-.48.41-.97.58-1.46.05.3.1.61.15.91l.16.98c-.04.16-.19.45-.31.63-.16,0-.31-.02-.44-.04h0ZM9.55,10.7l-.96-1.18-.21-.26c.6.24,1.22.48,1.84.69.07.03.1.05.23.43.02.05.04.11.06.17-.04.06-.08.11-.11.16-.04.06-.07.11-.1.17-.01.02-.02.04-.03.06-.25-.04-.58-.16-.7-.24h0ZM17.7,10.76l1.38-.21.49-.07c-.38.3-.77.61-1.13.95-.31.28-.5.32-.66.32-.07,0-.16-.01-.25-.03h-.05s-.06-.02-.08-.03c-.05-.19-.13-.35-.2-.47.14-.16.37-.37.51-.45h0ZM7.73,15.69c.38-.3.76-.61,1.13-.95.29-.27.49-.31.65-.31.08,0,.17.01.26.03.04,0,.08.02.12.03.05.2.14.35.2.47-.15.17-.4.38-.54.45l-.95.14c-.3.04-.59.09-.89.13h0ZM16.75,15.61s.04-.04.07-.07c.11-.1.19-.21.25-.31.25.05.56.16.68.23.17.21.33.41.5.62.21.26.43.53.65.8-.56-.22-1.13-.45-1.72-.63-.07-.02-.09-.03-.24-.31-.05-.1-.1-.19-.16-.29-.01-.02-.02-.04-.03-.05h0ZM12.68,17.63c.05-.15.18-.41.3-.59.11.02.24.05.4.05.03,0,.06,0,.09,0,.02.04.05.09.06.11.19.35.19.58.03.93-.21.46-.39.93-.56,1.39-.04-.24-.08-.49-.12-.73l-.19-1.15h0Z"/>
      </g>
      <path class="cls-2" d="M18.94,22.45c.19.43.34.76.47,1.09.21.53.01,1.07-.46,1.29-.46.21-1.03.01-1.29-.47-.09-.17-.15-.35-.23-.52-.08-.17-.16-.34-.29-.6-.19.49-.35.89-.5,1.29-.26.67-.75.95-1.31.74-.56-.21-.76-.74-.51-1.41.35-.93.72-1.85,1.05-2.79.08-.23.04-.51.05-.77-.06-.01-.13-.02-.19-.03-.19.47-.35.94-.56,1.4-.31.67-1.11.8-1.6.26-.28-.31-.31-.67-.16-1.06.3-.8.57-1.61.92-2.38.28-.6.26-1.11-.05-1.69-.2-.37-.36-.63-.82-.56-.16.02-.34-.04-.51-.07-.09-.01-.2-.04-.28-.01-.28.1-.88,1.2-.83,1.5.16,1,.33,1.99.49,2.99.11.7-.19,1.18-.79,1.27-.57.09-1.01-.27-1.11-.95-.07-.44-.07-.9-.11-1.35h-.31c-.05.25-.16.51-.13.74.14,1.05.33,2.09.5,3.13.07.43-.07.78-.45,1.01-.36.22-.76.22-1.05-.07-.2-.19-.34-.49-.41-.76-.1-.42-.12-.87-.17-1.31-.06-.01-.11-.03-.17-.04-.18.25-.37.51-.56.76-.4.55-.95.68-1.43.34-.48-.34-.54-.9-.15-1.45.18-.25.37-.5.64-.88-.6.09-1.07.17-1.53.23-.66.08-1.17-.32-1.2-.91-.02-.53.32-.91.92-1.01,1-.16,2-.29,2.99-.47.26-.05.49-.22.74-.34-.02-.06-.04-.13-.06-.19-.44.06-.88.13-1.32.19-.7.1-1.2-.2-1.28-.79-.09-.58.29-1.02,1-1.13.95-.15,1.9-.29,2.85-.43.39-.06,1.29-.88,1.27-1.25-.01-.26-.26-.5-.31-.77-.09-.45-.37-.51-.76-.59-.67-.14-1.17.03-1.66.48-.61.57-1.29,1.06-1.94,1.58-.51.4-1.11.35-1.47-.11-.32-.41-.23-.98.23-1.38.18-.15.37-.3.55-.45.17-.14.34-.28.51-.42-.01-.05-.03-.1-.04-.15-.23.06-.51.06-.69.2-.82.62-1.6,1.27-2.41,1.91-.53.42-1.1.4-1.47-.04-.38-.46-.28-1.03.26-1.48.34-.28.67-.55,1.1-.9-.46-.05-.81-.08-1.16-.13-.59-.08-.97-.53-.91-1.06.05-.54.51-.89,1.11-.85.34.02.69.07,1.15.11-.34-.43-.62-.78-.89-1.12-.44-.56-.41-1.13.06-1.5.44-.34,1.01-.23,1.44.3.64.78,1.26,1.57,1.92,2.34.16.19.43.28.65.42.04-.05.08-.09.11-.14-.32-.39-.65-.78-.94-1.19-.34-.47-.27-1.01.15-1.35.41-.33.97-.27,1.35.16.07.08.15.17.21.25.59.72,1.17,1.44,1.76,2.17.24.29,1.43.65,1.73.47.19-.12.31-.38.44-.59.12-.2.37-.48.31-.6-.25-.49-.24-1.16-.92-1.4-.95-.34-1.89-.71-2.82-1.09-.62-.25-.88-.74-.69-1.26.2-.56.72-.77,1.36-.54.43.15.85.32,1.32.5-.01-.39-.21-.55-.51-.66-.94-.36-1.88-.72-2.82-1.09-.63-.25-.93-.77-.73-1.28.21-.57.74-.77,1.41-.52.38.14.77.29,1.15.43.03.01.06,0,.16,0-.15-.34-.29-.66-.42-.98-.23-.56-.04-1.09.45-1.32.48-.22,1.03,0,1.3.52.16.32.3.65.49,1.08.2-.52.36-.94.53-1.36.25-.63.75-.89,1.3-.67.54.21.74.75.5,1.38-.35.94-.73,1.88-1.06,2.83-.08.23-.02.51-.03.76.06,0,.13.02.19.03.15-.4.31-.81.46-1.21.26-.65.75-.93,1.28-.74.58.21.79.76.53,1.44-.29.78-.55,1.58-.9,2.34-.25.55-.28,1.04.05,1.55.13.19.19.53.35.58.4.12.84.15,1.26.14.28,0,.91-1.19.85-1.52-.17-1.04-.35-2.08-.51-3.13-.09-.57.25-1.02.78-1.11.52-.09.99.23,1.12.78.03.12.05.25.06.37.03.38.06.75.09,1.13.09,0,.17.01.26.02.06-.24.19-.48.16-.71-.14-1.06-.33-2.12-.5-3.18-.07-.45.09-.81.5-1.03.37-.19.76-.17,1.05.13.18.19.31.48.37.74.09.43.11.87.15,1.31l.17.03c.2-.27.39-.54.59-.81.38-.51.94-.62,1.4-.28.46.33.53.9.16,1.42-.19.27-.38.53-.67.92.59-.09,1.05-.17,1.5-.23.55-.08.95.12,1.15.55.28.6-.08,1.23-.8,1.35-1.03.17-2.06.3-3.08.49-.24.04-.46.22-.68.34.02.06.05.12.07.18.41-.06.82-.12,1.23-.18.78-.12,1.28.17,1.37.79.08.6-.3,1.01-1.05,1.12-.95.15-1.9.29-2.85.44-.34.05-1.26.92-1.23,1.24.03.27.27.5.32.77.08.46.37.5.75.59.67.15,1.17-.04,1.66-.49.62-.56,1.29-1.06,1.94-1.58.5-.39,1.06-.36,1.44.08.36.42.28,1.01-.2,1.42-.36.3-.72.59-1.08.88.02.05.05.11.07.16.24-.08.53-.11.72-.25.8-.61,1.58-1.26,2.37-1.89.55-.44,1.13-.41,1.5.06.36.46.25,1.01-.28,1.44-.33.27-.66.54-.98.81,0,0,0,.03-.01.1.33.04.67.07,1,.12.63.09,1.02.52.97,1.07-.05.57-.53.91-1.2.85-.31-.03-.62-.06-1.06-.1.34.43.62.77.89,1.12.44.56.42,1.13-.05,1.5-.44.35-1.01.23-1.44-.29-.64-.78-1.26-1.57-1.92-2.34-.16-.19-.43-.29-.65-.43-.04.05-.08.1-.12.15.32.39.65.77.94,1.18.47.66.1,1.52-.67,1.53-.29,0-.65-.17-.85-.39-.68-.76-1.31-1.57-1.96-2.37-.23-.29-1.42-.65-1.73-.47-.17.1-.24.36-.39.51-.38.35-.48.7-.19,1.18.23.38.34.8.87.96.92.28,1.8.67,2.69,1.03.61.24.87.74.69,1.26-.2.55-.72.77-1.36.55-.44-.16-.87-.33-1.31-.5-.04.05-.07.1-.11.15.21.17.39.41.63.51.93.39,1.88.73,2.82,1.1.62.24.9.78.69,1.3-.22.55-.73.74-1.38.5-.42-.15-.84-.32-1.36-.51Z"/>
    </g>
  </g>
</svg>