<?xml version="1.0" encoding="UTF-8"?>
<svg id="Layer_2" data-name="Layer 2" xmlns="http://www.w3.org/2000/svg" viewBox="0 0 19.51 20.93">
  <defs>
    <style>
      .cls-1 {
        fill: #fcfcfd;
      }
    </style>
  </defs>
  <g id="Layer_1-2" data-name="Layer 1">
    <g>
      <path class="cls-1" d="M4.52,2.66C4.77.15,7.78-.83,9.64.86c.06.05.06.14.07.14.09.07.11-.09.16-.14,1.64-1.56,4.37-.92,5,1.28.03.11.13.44.13.53v1.05h3.25c.44,0,1.02.59,1.16,1s.14,2.07.01,2.46c-.15.48-.53.81-1,.97-5.63.14-11.29.02-16.92.06-.74-.01-1.4-.59-1.47-1.34-.05-.45-.05-1.77.08-2.16s.71-1,1.15-1h3.25c.02-.34-.03-.72,0-1.05Z"/>
      <path class="cls-1" d="M9.01,9.7v11.23H3.47c-.79,0-1.94-1.15-1.94-1.94v-9.29h7.49Z"/>
      <path class="cls-1" d="M17.99,9.7v9.24c0,.83-1.11,1.99-1.94,1.99h-5.54v-11.23h7.49Z"/>
    </g>
  </g>
</svg>