<?xml version="1.0" encoding="UTF-8"?>
<svg id="Layer_2" data-name="Layer 2" xmlns="http://www.w3.org/2000/svg" viewBox="0 0 6.47 6.47">
  <defs>
    <style>
      .cls-1 {
        fill: #a1def8;
      }

      .cls-2 {
        fill: #ffeade;
      }
    </style>
  </defs>
  <g id="Layer_1-2" data-name="Layer 1">
    <g>
      <path class="cls-1" d="M3.24,6.05C1.69,6.05.42,4.79.42,3.24S1.69.42,3.24.42s2.81,1.26,2.81,2.81-1.26,2.82-2.81,2.82Z"/>
      <path class="cls-2" d="M3.24.85c1.32,0,2.39,1.07,2.39,2.39s-1.07,2.39-2.39,2.39S.85,4.56.85,3.24,1.92.85,3.24.85M3.24,0C1.45,0,0,1.45,0,3.24s1.45,3.24,3.24,3.24,3.24-1.45,3.24-3.24S5.02,0,3.24,0h0Z"/>
    </g>
  </g>
</svg>