<?xml version="1.0" encoding="UTF-8"?>
<svg id="Layer_2" data-name="Layer 2" xmlns="http://www.w3.org/2000/svg" viewBox="0 0 23.71 23.07">
  <defs>
    <style>
      .cls-1 {
        fill: #fcfcfd;
      }
    </style>
  </defs>
  <g id="Slide-8">
    <path class="cls-1" d="M12.29.25l3.65,6.37c.07.12.18.21.32.24l7.07,1.69c.35.08.5.5.28.79l-4.83,6.44c-.09.12-.12.26-.09.4l1.32,6.27c.09.41-.33.74-.71.55l-7.21-3.52c-.14-.07-.3-.07-.44,0l-7.29,3.52c-.37.18-.79-.15-.71-.55l1.37-6.55c.03-.14,0-.29-.09-.41L.1,9.2c-.23-.29-.06-.72.3-.8l6.55-1.28c.14-.03.26-.11.33-.23L11.43.24c.2-.32.67-.31.86.02Z"/>
  </g>
</svg>